<?xml version="1.0" encoding="utf-8"?>
<!-- Generator: Adobe Illustrator 21.1.0, SVG Export Plug-In . SVG Version: 6.00 Build 0)  -->
<svg version="1.1" id="Layer_1" xmlns="http://www.w3.org/2000/svg" xmlns:xlink="http://www.w3.org/1999/xlink" x="0px" y="0px"
	 viewBox="0 0 433.6714 134.4554" style="enable-background:new 0 0 433.6714 134.4554;" xml:space="preserve">
<style type="text/css">
	.st0{fill:#ACA080;}
</style>
<g>
	<polygon class="st0" points="67.668,52.6162 49.457,26.3682 67.668,31.1332 85.813,26.3682 	"/>
	<path class="st0" d="M65.542,60.3535l-17.639-25.276c-5.742-0.698-9.168-4.855-11.515-10.621
		c6.724,24.002-8.598,27.674-17.037,3.823c8.439,31.346-5.043,25.733-14.086,8.831l8.946,21.757h-2.823l7.677,14.261H57.42
		L65.542,60.3535z"/>
	<polygon class="st0" points="20.4605,77.0742 55.5795,77.0742 51.3275,83.7502 23.8875,83.7502 	"/>
	<polygon class="st0" points="67.668,79.5312 56.278,83.7502 67.668,66.9992 78.994,83.7502 	"/>
	<path class="st0" d="M69.7618,60.3535l17.639-25.276c5.741-0.698,9.167-4.855,11.515-10.621
		c-6.726,24.002,8.597,27.674,17.036,3.823c-8.439,31.346,5.044,25.733,14.086,8.831l-8.978,21.757h2.855l-7.677,14.261h-38.387
		L69.7618,60.3535z"/>
	<polygon class="st0" points="114.8091,77.0742 79.7231,77.0742 83.9741,83.7502 111.4161,83.7502 	"/>
	<path class="st0" d="M67.4459,0c6.598,0,11.992,5.158,11.992,11.469c0,6.343-5.394,11.502-11.992,11.502
		c-6.6,0-11.992-5.159-11.992-11.502C55.4539,5.158,60.8459,0,67.4459,0"/>
	<path class="st0" d="M2.918,18.7524c1.617,0,2.918,1.244,2.918,2.791c0,1.518-1.301,2.792-2.918,2.792
		c-1.587,0-2.918-1.274-2.918-2.792C0,19.9964,1.331,18.7524,2.918,18.7524"/>
	<path class="st0" d="M34.7681,5.1581c1.588,0,2.918,1.244,2.918,2.792c0,1.516-1.33,2.791-2.918,2.791
		c-1.617,0-2.918-1.275-2.918-2.791C31.8501,6.4021,33.1511,5.1581,34.7681,5.1581"/>
	<path class="st0" d="M18.399,11.955c1.618,0,2.918,1.245,2.918,2.792c0,1.517-1.3,2.791-2.918,2.791
		c-1.585,0-2.887-1.274-2.887-2.791C15.512,13.2,16.814,11.955,18.399,11.955"/>
	<path class="st0" d="M132.3858,18.7524c-1.619,0-2.918,1.244-2.918,2.791c0,1.518,1.299,2.792,2.918,2.792
		c1.585,0,2.886-1.274,2.886-2.792C135.2718,19.9964,133.9708,18.7524,132.3858,18.7524"/>
	<path class="st0" d="M100.5333,5.1581c-1.618,0-2.918,1.244-2.918,2.792c0,1.516,1.3,2.791,2.918,2.791
		c1.62,0,2.919-1.275,2.919-2.791C103.4523,6.4021,102.1533,5.1581,100.5333,5.1581"/>
	<path class="st0" d="M116.8721,11.955c-1.586,0-2.919,1.245-2.919,2.792c0,1.517,1.333,2.791,2.919,2.791
		c1.618,0,2.919-1.274,2.919-2.791C119.7911,13.2,118.4901,11.955,116.8721,11.955"/>
	<path class="st0" d="M28.2009,100.4694v-2.306c0-1.517-0.19-2.488-0.538-2.852c-0.477-0.517-1.207-0.789-2.189-0.789h-0.952v-0.637
		h9.264c2.696,0,4.695,0.182,5.994,0.545c1.271,0.364,2.349,1.062,3.269,2.094c0.857,1.002,1.3,2.185,1.3,3.611v0.334h-4.186v-0.122
		c0-1.486-0.508-2.761-1.491-3.672c-1.016-0.97-2.316-1.456-3.966-1.456c-0.73,0-1.682,0.122-2.95,0.365v4.885H28.2009z
		 M49.8379,118.1904h-6.789l-8.628-11.379c-0.635,0.03-1.144,0.03-1.556,0.03h-0.538c-0.16,0-0.351,0-0.571-0.03v7.07
		c0,1.547,0.189,2.489,0.539,2.852c0.476,0.547,1.172,0.789,2.126,0.789h1.014v0.668h-10.913v-0.668h0.953
		c1.076,0,1.838-0.333,2.315-1.001c0.253-0.364,0.411-1.244,0.411-2.64v-13.412h3.555v5.22h0.634h0.443
		c2.412,0,4.219-0.486,5.458-1.487c1.206-0.972,1.839-2.216,1.872-3.733h4.186c-0.062,1.335-0.571,2.549-1.522,3.55
		c-1.014,1.093-2.57,1.882-4.728,2.337l5.268,6.979c1.174,1.608,2.221,2.67,3.077,3.186s1.998,0.85,3.394,1.001
		C49.8379,117.5224,49.8379,118.1904,49.8379,118.1904z"/>
	<path class="st0" d="M62.2418,103.8071l4.663-10.499h0.667l4.569,10.499h-3.744l-2.157-4.916l-2.221,4.916H62.2418z
		 M71.0308,110.0581h-9.805l-1.712,3.823c-0.444,0.942-0.665,1.639-0.665,2.125c0,0.364,0.19,0.698,0.57,0.971
		c0.348,0.272,1.174,0.455,2.38,0.545v0.668h-7.995v-0.668c1.047-0.182,1.745-0.423,2.062-0.697c0.635-0.576,1.332-1.73,2.094-3.49
		l4.282-9.528h1.777l-2.22,4.917h8.724l-2.126-4.917h3.744l4.251,9.74c0.698,1.639,1.365,2.671,1.935,3.157
		c0.602,0.485,1.396,0.758,2.442,0.818v0.668h-10.024v-0.668c1.015-0.06,1.681-0.212,2.031-0.485
		c0.38-0.273,0.539-0.607,0.539-1.001c0-0.516-0.255-1.365-0.73-2.489L71.0308,110.0581z"/>
	<path class="st0" d="M96.6963,104.7177l9.39,8.891c1.522,1.486,2.823,2.488,3.933,3.004c1.078,0.546,2.158,0.849,3.267,0.91v0.668
		h-12.119v-0.668c0.731,0,1.269-0.091,1.588-0.334c0.316-0.242,0.475-0.515,0.475-0.789c0-0.272-0.062-0.546-0.191-0.788
		c-0.094-0.213-0.506-0.638-1.173-1.275l-8.756-8.285v7.83c0,1.244,0.064,2.033,0.254,2.428c0.095,0.303,0.38,0.576,0.762,0.789
		c0.538,0.272,1.11,0.424,1.714,0.424h0.856v0.668h-10.852v-0.668h0.921c1.047,0,1.808-0.304,2.285-0.879
		c0.317-0.395,0.444-1.306,0.444-2.762v-15.719c0-1.213-0.096-2.033-0.222-2.458c-0.16-0.273-0.412-0.515-0.793-0.758
		c-0.541-0.273-1.111-0.424-1.714-0.424h-0.921v-0.638h10.852v0.638h-0.856c-0.604,0-1.144,0.151-1.714,0.424
		c-0.382,0.182-0.635,0.455-0.794,0.85c-0.158,0.395-0.222,1.183-0.222,2.366v7.435c0.254-0.213,1.109-0.971,2.57-2.276
		c3.712-3.247,5.932-5.402,6.724-6.494c0.351-0.485,0.509-0.91,0.509-1.243c0-0.274-0.126-0.547-0.412-0.729
		c-0.255-0.212-0.698-0.333-1.334-0.333h-0.57v-0.638h9.327v0.638c-0.54,0.029-1.046,0.091-1.492,0.242
		c-0.443,0.121-0.983,0.364-1.648,0.728c-0.635,0.394-1.429,1.001-2.38,1.821c-0.286,0.243-1.555,1.487-3.807,3.672
		L96.6963,104.7177z"/>
	<path class="st0" d="M26.9961,127.2031v-1.033c0-0.607-0.063-1-0.221-1.152c-0.192-0.212-0.476-0.304-0.857-0.304h-0.381v-0.273
		h3.744c0.92,0,1.618,0.091,2.156,0.273c0.54,0.182,0.984,0.486,1.334,0.911c0.38,0.424,0.538,0.941,0.538,1.517v0.061h-1.712
		c0-0.396-0.095-0.759-0.254-1.093c-0.191-0.364-0.444-0.637-0.763-0.819c-0.348-0.182-0.728-0.273-1.14-0.273
		c-0.254,0-0.604,0.061-0.985,0.152v2.033C28.4551,127.2031,26.9961,127.2031,26.9961,127.2031z M28.4551,129.6611v2.852
		c0,0.607,0.064,0.97,0.191,1.123c0.19,0.212,0.476,0.334,0.888,0.334h0.38v0.273h-4.377v-0.273h0.381
		c0.444,0,0.729-0.153,0.92-0.425c0.095-0.122,0.158-0.486,0.158-1.032v-5.31h1.459v2.032c0.254,0.062,0.477,0.092,0.699,0.122
		c0.222,0,0.38,0.031,0.539,0.031c0.508,0,0.952-0.183,1.332-0.577c0.38-0.395,0.572-0.911,0.572-1.517v-0.091h1.712
		c0,0.789-0.285,1.396-0.825,1.911c-0.539,0.486-1.301,0.728-2.316,0.728c-0.254,0-0.507,0-0.792-0.06
		C29.0891,129.7821,28.7731,129.7211,28.4551,129.6611"/>
	<path class="st0" d="M39.4962,124.2299c1.331,0,2.506,0.484,3.457,1.425c0.985,0.972,1.459,2.184,1.459,3.611v0.091h-1.713
		c0-1.608-0.349-2.822-1.046-3.611c-0.539-0.667-1.301-1.001-2.283-1.001c-0.92,0-1.651,0.334-2.189,0.971
		c-0.7,0.819-1.047,2.003-1.047,3.55v0.091h-1.714v-0.06c0-1.548,0.538-2.822,1.649-3.794
		C37.0212,124.6539,38.1632,124.2299,39.4962,124.2299 M44.4122,129.3569c0,1.457-0.474,2.67-1.459,3.611
		c-0.982,1.002-2.157,1.487-3.553,1.487c-1.395,0-2.6-0.485-3.553-1.426c-0.951-0.971-1.427-2.185-1.427-3.672h1.714
		c0,1.547,0.38,2.761,1.078,3.611c0.539,0.637,1.268,0.971,2.158,0.971c0.982,0,1.775-0.364,2.378-1.062
		c0.635-0.728,0.951-1.851,0.951-3.398v-0.122H44.4122z"/>
	<path class="st0" d="M46.7607,127.1116v-0.941c0-0.607-0.096-1.001-0.223-1.153c-0.189-0.212-0.475-0.303-0.855-0.303h-0.414
		v-0.273h3.745c1.077,0,1.872,0.091,2.411,0.242c0.507,0.152,0.951,0.426,1.301,0.82c0.348,0.425,0.538,0.88,0.538,1.456v0.152
		h-1.681v-0.061c0-0.607-0.223-1.093-0.603-1.487c-0.412-0.363-0.95-0.575-1.617-0.575c-0.286,0-0.666,0.06-1.175,0.15v1.973
		H46.7607z M55.4537,134.2426h-2.728l-3.458-4.582h-0.636h-0.222h-0.222v2.853c0,0.606,0.064,0.97,0.222,1.122
		c0.191,0.212,0.477,0.334,0.858,0.334h0.411v0.273h-4.41v-0.273h0.414c0.412,0,0.729-0.152,0.92-0.425
		c0.095-0.121,0.158-0.486,0.158-1.031v-5.402h1.427v2.093h0.254h0.19c0.953,0,1.683-0.212,2.19-0.606
		c0.476-0.395,0.729-0.88,0.761-1.487h1.681c-0.031,0.546-0.222,1.001-0.602,1.426c-0.413,0.425-1.047,0.759-1.904,0.941
		l2.094,2.791c0.477,0.668,0.921,1.093,1.237,1.275c0.349,0.243,0.824,0.365,1.365,0.425V134.2426z"/>
	<path class="st0" d="M64.6211,124.2294l0.223,3.307h-0.223c-0.316-0.971-0.76-1.699-1.332-2.124
		c-0.603-0.455-1.269-0.667-2.094-0.667c-0.666,0-1.3,0.151-1.841,0.485c-0.538,0.333-0.982,0.849-1.299,1.577
		c-0.318,0.729-0.445,1.609-0.445,2.702c0,0.879,0.127,1.638,0.445,2.306c0.285,0.637,0.729,1.122,1.332,1.487
		c0.602,0.333,1.269,0.515,2.03,0.515c0.666,0,1.269-0.122,1.777-0.394c0.477-0.273,1.047-0.82,1.65-1.638l0.254,0.151
		c-0.539,0.879-1.112,1.518-1.809,1.912c-0.665,0.394-1.49,0.607-2.443,0.607c-1.682,0-3.014-0.607-3.933-1.821
		c-0.699-0.88-1.047-1.943-1.047-3.156c0-0.971,0.254-1.851,0.697-2.671c0.445-0.819,1.078-1.456,1.904-1.911
		c0.794-0.455,1.651-0.667,2.601-0.667c0.762,0,1.491,0.182,2.19,0.516c0.222,0.09,0.381,0.151,0.474,0.151
		c0.129,0,0.254-0.03,0.351-0.122c0.127-0.151,0.222-0.333,0.284-0.545C64.3671,124.2294,64.6211,124.2294,64.6211,124.2294z"/>
	<path class="st0" d="M68.8409,124.9882v3.854h2.222c0.57,0,0.983-0.092,1.173-0.244c0.254-0.213,0.412-0.607,0.444-1.183h0.253
		v3.429h-0.253c-0.095-0.486-0.159-0.79-0.222-0.941c-0.095-0.152-0.254-0.303-0.444-0.394c-0.223-0.091-0.539-0.122-0.951-0.122
		h-2.222v3.216c0,0.426,0.032,0.699,0.064,0.789c0.032,0.091,0.094,0.153,0.223,0.213c0.093,0.061,0.284,0.091,0.57,0.091h1.681
		c0.603,0,1.015-0.03,1.269-0.122c0.255-0.06,0.507-0.211,0.762-0.454c0.317-0.304,0.634-0.759,0.952-1.335h0.316l-0.888,2.457
		h-7.867v-0.273h0.38c0.222,0,0.476-0.06,0.666-0.182c0.16-0.061,0.287-0.182,0.35-0.333c0.063-0.152,0.063-0.487,0.063-0.941
		v-6.373c0-0.606-0.063-1.001-0.19-1.152c-0.159-0.183-0.477-0.274-0.889-0.274h-0.38v-0.273h7.867l0.095,2.154h-0.285
		c-0.095-0.516-0.222-0.879-0.35-1.061c-0.125-0.213-0.317-0.334-0.57-0.455c-0.19-0.061-0.539-0.091-1.079-0.091L68.8409,124.9882
		L68.8409,124.9882z"/>
	<path class="st0" d="M83.878,131.5117l0.254,0.061l-0.888,2.67h-7.932v-0.273h0.414c0.412,0,0.729-0.152,0.92-0.425
		c0.094-0.152,0.157-0.486,0.157-1.062v-6.312c0-0.607-0.094-0.971-0.221-1.153c-0.19-0.212-0.476-0.303-0.856-0.303h-0.414v-0.273
		h4.632v0.273c-0.538,0-0.92,0.03-1.141,0.152c-0.222,0.091-0.349,0.212-0.444,0.364c-0.064,0.151-0.127,0.546-0.127,1.122v6.13
		c0,0.425,0.063,0.697,0.127,0.82c0.063,0.121,0.158,0.181,0.285,0.242c0.127,0.03,0.507,0.06,1.174,0.06h0.761
		c0.761,0,1.333-0.06,1.649-0.151c0.318-0.122,0.604-0.303,0.857-0.607C83.339,132.5737,83.626,132.1177,83.878,131.5117"/>
	<path class="st0" d="M87.971,128.4468l1.871-4.217h0.255l1.871,4.217h-1.522l-0.889-1.972l-0.887,1.972H87.971z M91.524,130.9658
		h-3.966l-0.697,1.547c-0.159,0.364-0.254,0.638-0.254,0.85c0,0.121,0.063,0.273,0.222,0.395c0.159,0.09,0.477,0.181,0.951,0.212
		v0.273h-3.204v-0.273c0.414-0.091,0.698-0.182,0.824-0.274c0.255-0.242,0.541-0.728,0.857-1.426l1.714-3.823h0.699l-0.89,1.972
		h3.523l-0.857-1.972h1.522l1.714,3.914c0.285,0.668,0.538,1.093,0.76,1.275c0.254,0.182,0.573,0.303,0.984,0.334v0.273h-4.028
		v-0.273c0.412-0.031,0.697-0.091,0.824-0.212c0.158-0.091,0.222-0.244,0.222-0.395c0-0.212-0.095-0.547-0.316-1.002
		L91.524,130.9658z"/>
	<path class="st0" d="M100.3751,133.9697v0.273h-4.377v-0.273h0.348c0.413,0,0.73-0.122,0.921-0.365
		c0.125-0.151,0.19-0.515,0.19-1.092v-6.342c0-0.486-0.033-0.82-0.095-0.971c-0.063-0.121-0.16-0.242-0.318-0.303
		c-0.222-0.122-0.444-0.182-0.698-0.182h-0.348v-0.273h4.377v0.273h-0.38c-0.412,0-0.731,0.121-0.92,0.364
		c-0.127,0.152-0.159,0.516-0.159,1.092v6.342c0,0.486,0,0.819,0.064,0.971c0.063,0.121,0.19,0.212,0.316,0.304
		c0.222,0.121,0.476,0.182,0.699,0.182H100.3751z"/>
	<path class="st0" d="M100.5333,124.4414h2.792l6.25,7.344v-5.645c0-0.606-0.062-0.97-0.223-1.122
		c-0.19-0.213-0.474-0.304-0.887-0.304h-0.349v-0.273h3.584v0.273h-0.38c-0.444,0-0.729,0.122-0.92,0.365
		c-0.095,0.181-0.159,0.515-0.159,1.061v8.254h-0.285l-6.726-7.89v6.039c0,0.607,0.063,0.971,0.192,1.123
		c0.19,0.182,0.506,0.303,0.887,0.303h0.349v0.273h-3.552v-0.273h0.347c0.445,0,0.761-0.121,0.951-0.395
		c0.097-0.151,0.161-0.485,0.161-1.031v-6.797c-0.319-0.334-0.54-0.576-0.699-0.667c-0.127-0.122-0.349-0.213-0.666-0.305
		c-0.126-0.029-0.348-0.06-0.667-0.06C100.5333,124.7144,100.5333,124.4414,100.5333,124.4414z"/>
	<g>
		<polygon class="st0" points="159.3613,72.3385 162.0133,54.6184 162.3141,54.6184 169.8466,69.1584 177.3054,54.6184 
			177.6014,54.6184 180.268,72.3385 178.4516,72.3385 176.6204,59.6656 170.0706,72.3385 169.5981,72.3385 162.9698,59.5692 
			161.15,72.3385 		"/>
		<path class="st0" d="M192.7653,54.6181l8.6393,17.7201h-1.9996l-2.9152-5.8304h-7.9788l-2.8874,5.8304h-2.065l8.7538-17.7201
			C192.3124,54.6181,192.7653,54.6181,192.7653,54.6181z M192.5315,58.3835l-3.1752,6.4141h6.334L192.5315,58.3835z"/>
		<polygon class="st0" points="205.5652,54.6186 207.4536,54.6186 207.4536,61.2681 214.8602,54.6186 217.347,54.6186 
			208.4493,62.5696 218.0402,72.3387 215.5746,72.3387 207.4536,64.0852 207.4536,72.3387 205.5652,72.3387 		"/>
		<polygon class="st0" points="222.106,54.6186 232.722,54.6186 232.722,56.3533 223.9568,56.3533 223.9568,61.9074 
			232.6468,61.9074 232.6468,63.6421 223.9568,63.6421 223.9568,70.6039 232.6468,70.6039 232.6468,72.3387 222.106,72.3387 		"/>
		<path class="st0" d="M243.7265,69.0373l1.5745-0.9025c1.1085,1.9506,2.3887,2.9266,3.8422,2.9266
			c0.6197,0,1.2034-0.139,1.7494-0.4153c0.5461-0.2779,0.9614-0.6491,1.2475-1.1151c0.2845-0.4643,0.4267-0.9597,0.4267-1.4813
			c0-0.5935-0.2093-1.1756-0.6295-1.7462c-0.5788-0.7864-1.6366-1.7347-3.1735-2.8433c-1.5451-1.1167-2.5064-1.9228-2.8841-2.4214
			c-0.654-0.8355-0.9826-1.738-0.9826-2.7092c0-0.7717,0.1929-1.4748,0.5804-2.1091c0.3859-0.6344,0.9303-1.1347,1.6301-1.4993
			c0.7014-0.3646,1.4633-0.5477,2.2857-0.5477c0.8731,0,1.6906,0.206,2.4509,0.6197c0.7586,0.4137,1.5631,1.1739,2.41,2.2825
			l-1.5107,1.0954c-0.6965-0.8829-1.29-1.465-1.7822-1.7445c-0.4905-0.2812-1.0268-0.4235-1.6056-0.4235
			c-0.7472,0-1.357,0.2175-1.8328,0.6507c-0.4742,0.4333-0.7112,0.9696-0.7112,1.6023c0,0.3859,0.0834,0.7603,0.2534,1.12
			c0.1668,0.363,0.4725,0.7554,0.9189,1.1805c0.242,0.2256,1.0399,0.8159,2.392,1.7707c1.6039,1.1331,2.7027,2.1418,3.2994,3.0247
			c0.5968,0.8829,0.8943,1.7707,0.8943,2.6618c0,1.2851-0.5101,2.4018-1.5303,3.3485s-2.2612,1.4225-3.7213,1.4225
			c-1.1249,0-2.1451-0.2878-3.0607-0.8616C245.3435,71.3492,244.4999,70.3862,243.7265,69.0373"/>
		<path class="st0" d="M259.8394,54.6186h1.8508v10.6961c0,1.2704,0.0245,2.0601,0.0752,2.374
			c0.0932,0.6982,0.3074,1.2818,0.6426,1.7527c0.3351,0.4692,0.8518,0.8633,1.55,1.1805c0.6965,0.3172,1.3979,0.4758,2.1026,0.4758
			c0.6131,0,1.2001-0.1243,1.7625-0.3728c0.5624-0.2502,1.0333-0.5951,1.411-1.0366c0.3777-0.4414,0.654-0.9761,0.8306-1.6023
			c0.1275-0.4496,0.1897-1.3734,0.1897-2.7713V54.6186h1.8508v10.6961c0,1.5827-0.1619,2.8612-0.4839,3.8373
			c-0.3237,0.9745-0.9712,1.8247-1.9391,2.5473c-0.9712,0.7227-2.1451,1.084-3.5201,1.084c-1.4944,0-2.7762-0.3417-3.8422-1.0235
			c-1.066-0.6818-1.7805-1.5859-2.1402-2.7108c-0.2273-0.69-0.3401-1.9342-0.3401-3.7343V54.6186H259.8394z"/>
		<path class="st0" d="M278.0547,54.6186h3.6902c2.0568,0,3.4498,0.0801,4.1807,0.242c1.0987,0.2403,1.993,0.757,2.683,1.55
			c0.6883,0.7913,1.0317,1.7658,1.0317,2.9234c0,0.9663-0.2371,1.8148-0.7112,2.5457c-0.4742,0.7325-1.1527,1.2851-2.0339,1.6579
			c-0.8813,0.3744-2.0993,0.5657-3.6509,0.5739l6.661,8.2273h-2.2906l-6.661-8.2273h-1.048v8.2273h-1.8508V54.6186H278.0547z
			 M279.9055,56.3533v6.0233l3.1915,0.0229c1.2361,0,2.1516-0.1112,2.7435-0.3368c0.5935-0.224,1.0562-0.5837,1.3881-1.0775
			c0.3319-0.4938,0.4987-1.0464,0.4987-1.6562c0-0.5935-0.1684-1.1347-0.5052-1.6203s-0.7783-0.8339-1.3243-1.0431
			c-0.5461-0.2076-1.4551-0.3123-2.7239-0.3123H279.9055z"/>
		<polygon class="st0" points="294.9104,54.6186 305.5264,54.6186 305.5264,56.3533 296.7612,56.3533 296.7612,61.9074 
			305.4512,61.9074 305.4512,63.6421 296.7612,63.6421 296.7612,70.6039 305.4512,70.6039 305.4512,72.3387 294.9104,72.3387 		"/>
		<rect x="318.181" y="54.6189" class="st0" width="1.8508" height="17.7201"/>
		<rect x="145.2229" y="51.0726" class="st0" width="1.8508" height="24.8126"/>
		<rect x="431.8206" y="51.0726" class="st0" width="1.8508" height="24.8126"/>
		<polygon class="st0" points="323.7272,56.3533 323.7272,54.6186 333.8773,54.6186 333.8773,56.3533 329.7473,56.3533 
			329.7473,72.3387 327.8572,72.3387 327.8572,56.3533 		"/>
		<path class="st0" d="M339.9526,60.7864l-0.9696-0.5297c0.3188-0.6099,0.533-1.0889,0.6425-1.4339
			c0.1079-0.345,0.1896-0.7913,0.2387-1.3374h-1.1069v-3.3125h2.2792v2.0715c0,1.0366-0.0736,1.8508-0.2207,2.4394
			C340.6687,59.2741,340.381,59.9755,339.9526,60.7864"/>
		<path class="st0" d="M346.2674,69.0373l1.5745-0.9025c1.1085,1.9506,2.3871,2.9266,3.8406,2.9266
			c0.6213,0,1.205-0.139,1.7511-0.4153c0.5445-0.2779,0.9614-0.6491,1.2459-1.1151c0.2861-0.4643,0.4284-0.9597,0.4284-1.4813
			c0-0.5935-0.2093-1.1756-0.6295-1.7462c-0.5804-0.7864-1.6366-1.7347-3.1735-2.8433c-1.5451-1.1167-2.5065-1.9228-2.8842-2.4214
			c-0.654-0.8355-0.9826-1.738-0.9826-2.7092c0-0.7717,0.193-1.4748,0.5788-2.1091c0.3875-0.6344,0.9303-1.1347,1.6317-1.4993
			c0.7014-0.3646,1.4617-0.5477,2.2857-0.5477c0.8731,0,1.6906,0.206,2.4492,0.6197c0.7603,0.4137,1.5631,1.1739,2.4117,2.2825
			l-1.5107,1.0954c-0.6982-0.8829-1.2917-1.465-1.7822-1.7445c-0.4905-0.2812-1.0268-0.4235-1.6056-0.4235
			c-0.7472,0-1.3587,0.2175-1.8328,0.6507c-0.4742,0.4333-0.7112,0.9696-0.7112,1.6023c0,0.3859,0.0834,0.7603,0.2518,1.12
			c0.1684,0.363,0.4742,0.7554,0.9205,1.1805c0.242,0.2256,1.0399,0.8159,2.392,1.7707c1.6023,1.1331,2.7026,2.1418,3.2994,3.0247
			c0.5951,0.8829,0.8943,1.7707,0.8943,2.6618c0,1.2851-0.5101,2.4018-1.5303,3.3485s-2.2612,1.4225-3.7213,1.4225
			c-1.1265,0-2.1468-0.2878-3.0607-0.8616C347.8828,71.3492,347.0391,70.3862,346.2674,69.0373"/>
		<path class="st0" d="M370.848,54.6186h3.6902c2.0568,0,3.4498,0.0801,4.1807,0.242c1.0987,0.2403,1.9931,0.757,2.683,1.55
			c0.6883,0.7913,1.0317,1.7658,1.0317,2.9234c0,0.9663-0.2371,1.8148-0.7112,2.5457c-0.4742,0.7325-1.1527,1.2851-2.0339,1.6579
			c-0.8813,0.3744-2.0993,0.5657-3.6526,0.5739l6.6627,8.2273h-2.2906l-6.6626-8.2273h-1.0464v8.2273h-1.8508V54.6186H370.848z
			 M372.6988,56.3533v6.0233l3.1915,0.0229c1.2361,0,2.15-0.1112,2.7435-0.3368c0.5935-0.224,1.0546-0.5837,1.3881-1.0775
			c0.3319-0.4938,0.497-1.0464,0.497-1.6562c0-0.5935-0.1667-1.1347-0.5036-1.6203c-0.3368-0.4856-0.7783-0.8339-1.3243-1.0431
			c-0.5461-0.2076-1.4552-0.3123-2.7239-0.3123H372.6988z"/>
		<path class="st0" d="M395.2589,54.6181l8.6393,17.7201h-1.9996l-2.9136-5.8304h-7.9804l-2.8858,5.8304h-2.065l8.7522-17.7201
			C394.806,54.6181,395.2589,54.6181,395.2589,54.6181z M395.0251,58.3835l-3.1736,6.4141h6.3324L395.0251,58.3835z"/>
		<polygon class="st0" points="408.0597,54.6186 409.9481,54.6186 409.9481,61.2681 417.3546,54.6186 419.8414,54.6186 
			410.9438,62.5696 420.5331,72.3387 418.0691,72.3387 409.9481,64.0852 409.9481,72.3387 408.0597,72.3387 		"/>
	</g>
</g>
</svg>
