<?xml version="1.0" encoding="utf-8"?>
<!-- Generator: Adobe Illustrator 21.1.0, SVG Export Plug-In . SVG Version: 6.00 Build 0)  -->
<svg version="1.1" id="Layer_1" xmlns="http://www.w3.org/2000/svg" xmlns:xlink="http://www.w3.org/1999/xlink" x="0px" y="0px"
	 viewBox="0 0 211.1 165.8" style="enable-background:new 0 0 211.1 165.8;" xml:space="preserve">
<style type="text/css">
	.st0{fill:#FFFFFF;}
</style>
<g>
	<polygon class="st0" points="105.6,52.6 87.3,26.4 105.6,31.1 123.7,26.4 	"/>
	<path class="st0" d="M103.4,60.4L85.8,35.1c-5.7-0.7-9.2-4.9-11.5-10.6c6.7,24-8.6,27.7-17,3.8c8.4,31.3-5,25.7-14.1,8.8l8.9,21.8
		h-2.8L57,73.1h38.4L103.4,60.4z"/>
	<polygon class="st0" points="58.4,77.1 93.5,77.1 89.2,83.8 61.8,83.8 	"/>
	<polygon class="st0" points="105.6,79.5 94.2,83.8 105.6,67 116.9,83.8 	"/>
	<path class="st0" d="M107.7,60.4l17.6-25.3c5.7-0.7,9.2-4.9,11.5-10.6c-6.7,24,8.6,27.7,17,3.8c-8.4,31.3,5,25.7,14.1,8.8l-9,21.8
		h2.9l-7.7,14.3h-38.4L107.7,60.4z"/>
	<polygon class="st0" points="152.7,77.1 117.6,77.1 121.9,83.8 149.3,83.8 	"/>
	<path class="st0" d="M105.3,0c6.6,0,12,5.2,12,11.5s-5.4,11.5-12,11.5s-12-5.2-12-11.5S98.7,0,105.3,0"/>
	<path class="st0" d="M40.8,18.8c1.6,0,2.9,1.2,2.9,2.8c0,1.5-1.3,2.8-2.9,2.8c-1.6,0-2.9-1.3-2.9-2.8C37.9,20,39.2,18.8,40.8,18.8"
		/>
	<path class="st0" d="M72.7,5.2c1.6,0,2.9,1.2,2.9,2.8c0,1.5-1.3,2.8-2.9,2.8S69.8,9.5,69.8,8C69.7,6.4,71,5.2,72.7,5.2"/>
	<path class="st0" d="M56.3,12c1.6,0,2.9,1.2,2.9,2.8c0,1.5-1.3,2.8-2.9,2.8c-1.6,0-2.9-1.3-2.9-2.8C53.4,13.2,54.7,12,56.3,12"/>
	<path class="st0" d="M170.3,18.8c-1.6,0-2.9,1.2-2.9,2.8c0,1.5,1.3,2.8,2.9,2.8c1.6,0,2.9-1.3,2.9-2.8
		C173.2,20,171.9,18.8,170.3,18.8"/>
	<path class="st0" d="M138.4,5.2c-1.6,0-2.9,1.2-2.9,2.8c0,1.5,1.3,2.8,2.9,2.8c1.6,0,2.9-1.3,2.9-2.8C141.3,6.4,140,5.2,138.4,5.2"
		/>
	<path class="st0" d="M154.8,12c-1.6,0-2.9,1.2-2.9,2.8c0,1.5,1.3,2.8,2.9,2.8c1.6,0,2.9-1.3,2.9-2.8C157.7,13.2,156.4,12,154.8,12"
		/>
	<path class="st0" d="M66.1,100.5v-2.3c0-1.5-0.2-2.5-0.5-2.9c-0.5-0.5-1.2-0.8-2.2-0.8h-1v-0.6h9.3c2.7,0,4.7,0.2,6,0.5
		c1.3,0.4,2.3,1.1,3.3,2.1c0.9,1,1.3,2.2,1.3,3.6v0.3h-4.2v-0.1c0-1.5-0.5-2.8-1.5-3.7c-1-1-2.3-1.5-4-1.5c-0.7,0-1.7,0.1-2.9,0.4
		v4.9L66.1,100.5L66.1,100.5z M87.7,118.2h-6.8l-8.6-11.4c-0.6,0-1.1,0-1.6,0h-0.5c-0.2,0-0.4,0-0.6,0v7.1c0,1.5,0.2,2.5,0.5,2.9
		c0.5,0.5,1.2,0.8,2.1,0.8h1v0.7H62.4v-0.7h1c1.1,0,1.8-0.3,2.3-1c0.3-0.4,0.4-1.2,0.4-2.6v-13.4h3.6v5.2h0.6h0.4
		c2.4,0,4.2-0.5,5.5-1.5c1.2-1,1.8-2.2,1.9-3.7h4.2c-0.1,1.3-0.6,2.5-1.5,3.6c-1,1.1-2.6,1.9-4.7,2.3l5.3,7c1.2,1.6,2.2,2.7,3.1,3.2
		s2,0.8,3.4,1C87.7,117.5,87.7,118.2,87.7,118.2z"/>
	<path class="st0" d="M100.1,103.8l4.7-10.5h0.7l4.6,10.5h-3.7l-2.2-4.9l-2.2,4.9H100.1z M108.9,110.1h-9.8l-1.7,3.8
		c-0.4,0.9-0.7,1.6-0.7,2.1c0,0.4,0.2,0.7,0.6,1c0.3,0.3,1.2,0.5,2.4,0.5v0.7h-8v-0.7c1-0.2,1.7-0.4,2.1-0.7
		c0.6-0.6,1.3-1.7,2.1-3.5l4.3-9.5h1.8l-2.2,4.9h8.7l-2.1-4.9h3.7l4.3,9.7c0.7,1.6,1.4,2.7,1.9,3.2c0.6,0.5,1.4,0.8,2.4,0.8v0.7h-10
		v-0.7c1-0.1,1.7-0.2,2-0.5c0.4-0.3,0.5-0.6,0.5-1c0-0.5-0.3-1.4-0.7-2.5L108.9,110.1z"/>
	<path class="st0" d="M134.6,104.7l9.4,8.9c1.5,1.5,2.8,2.5,3.9,3c1.1,0.5,2.2,0.8,3.3,0.9v0.7h-12.1v-0.7c0.7,0,1.3-0.1,1.6-0.3
		c0.3-0.2,0.5-0.5,0.5-0.8s-0.1-0.5-0.2-0.8c-0.1-0.2-0.5-0.6-1.2-1.3L131,106v7.8c0,1.2,0.1,2,0.3,2.4c0.1,0.3,0.4,0.6,0.8,0.8
		c0.5,0.3,1.1,0.4,1.7,0.4h0.9v0.7h-10.9v-0.7h0.9c1,0,1.8-0.3,2.3-0.9c0.3-0.4,0.4-1.3,0.4-2.8V98.2c0-1.2-0.1-2-0.2-2.5
		c-0.2-0.3-0.4-0.5-0.8-0.8c-0.5-0.3-1.1-0.4-1.7-0.4h-0.9v-0.6h10.9v0.6h-0.9c-0.6,0-1.1,0.2-1.7,0.4c-0.4,0.2-0.6,0.5-0.8,0.8
		c-0.2,0.4-0.2,1.2-0.2,2.4v7.4c0.3-0.2,1.1-1,2.6-2.3c3.7-3.2,5.9-5.4,6.7-6.5c0.4-0.5,0.5-0.9,0.5-1.2c0-0.3-0.1-0.5-0.4-0.7
		c-0.3-0.2-0.7-0.3-1.3-0.3h-0.6v-0.6h9.3v0.6c-0.5,0-1,0.1-1.5,0.2c-0.4,0.1-1,0.4-1.6,0.7c-0.6,0.4-1.4,1-2.4,1.8
		c-0.3,0.2-1.6,1.5-3.8,3.7L134.6,104.7z"/>
	<path class="st0" d="M64.9,127.2v-1c0-0.6-0.1-1-0.2-1.2c-0.2-0.2-0.5-0.3-0.9-0.3h-0.4v-0.3h3.7c0.9,0,1.6,0.1,2.2,0.3
		c0.5,0.2,1,0.5,1.3,0.9c0.4,0.4,0.5,0.9,0.5,1.5v0.1h-1.7c0-0.4-0.1-0.8-0.3-1.1c-0.2-0.4-0.4-0.6-0.8-0.8
		c-0.3-0.2-0.7-0.3-1.1-0.3c-0.3,0-0.6,0.1-1,0.2v2C66.3,127.2,64.9,127.2,64.9,127.2z M66.3,129.7v2.9c0,0.6,0.1,1,0.2,1.1
		c0.2,0.2,0.5,0.3,0.9,0.3h0.4v0.3h-4.4V134h0.4c0.4,0,0.7-0.2,0.9-0.4c0.1-0.1,0.2-0.5,0.2-1v-5.3h1.5v2c0.3,0.1,0.5,0.1,0.7,0.1
		s0.4,0,0.5,0c0.5,0,1-0.2,1.3-0.6c0.4-0.4,0.6-0.9,0.6-1.5v-0.1h1.7c0,0.8-0.3,1.4-0.8,1.9s-1.3,0.7-2.3,0.7c-0.3,0-0.5,0-0.8-0.1
		C67,129.8,66.7,129.7,66.3,129.7"/>
	<path class="st0" d="M77.4,124.2c1.3,0,2.5,0.5,3.5,1.4c1,1,1.5,2.2,1.5,3.6v0.1h-1.7c0-1.6-0.3-2.8-1-3.6c-0.5-0.7-1.3-1-2.3-1
		c-0.9,0-1.7,0.3-2.2,1c-0.7,0.8-1,2-1,3.5v0.1h-1.7v-0.1c0-1.5,0.5-2.8,1.6-3.8C74.9,124.7,76.1,124.2,77.4,124.2 M82.3,129.4
		c0,1.5-0.5,2.7-1.5,3.6c-1,1-2.2,1.5-3.6,1.5s-2.6-0.5-3.6-1.4c-1-1-1.4-2.2-1.4-3.7H74c0,1.5,0.4,2.8,1.1,3.6c0.5,0.6,1.3,1,2.2,1
		c1,0,1.8-0.4,2.4-1.1c0.6-0.7,1-1.9,1-3.4v-0.1L82.3,129.4L82.3,129.4z"/>
	<path class="st0" d="M84.7,127.1v-0.9c0-0.6-0.1-1-0.2-1.2c-0.2-0.2-0.5-0.3-0.9-0.3h-0.4v-0.3h3.7c1.1,0,1.9,0.1,2.4,0.2
		c0.5,0.2,1,0.4,1.3,0.8s0.5,0.9,0.5,1.5v0.2h-1.7V127c0-0.6-0.2-1.1-0.6-1.5s-1-0.6-1.6-0.6c-0.3,0-0.7,0.1-1.2,0.2v2
		C86,127.1,84.7,127.1,84.7,127.1z M93.3,134.2h-2.7l-3.5-4.6h-0.6h-0.2h-0.2v2.9c0,0.6,0.1,1,0.2,1.1c0.2,0.2,0.5,0.3,0.9,0.3h0.4
		v0.3h-4.4V134h0.4c0.4,0,0.7-0.2,0.9-0.4c0.1-0.1,0.2-0.5,0.2-1v-5.4h1.4v2.1h0.3h0.2c1,0,1.7-0.2,2.2-0.6c0.5-0.4,0.7-0.9,0.8-1.5
		h1.7c0,0.5-0.2,1-0.6,1.4s-1,0.8-1.9,0.9l2.1,2.8c0.5,0.7,0.9,1.1,1.2,1.3c0.3,0.2,0.8,0.4,1.4,0.4v0.2H93.3z"/>
	<path class="st0" d="M102.5,124.2l0.2,3.3h-0.2c-0.3-1-0.8-1.7-1.3-2.1c-0.6-0.5-1.3-0.7-2.1-0.7c-0.7,0-1.3,0.2-1.8,0.5
		s-1,0.8-1.3,1.6c-0.3,0.7-0.4,1.6-0.4,2.7c0,0.9,0.1,1.6,0.4,2.3c0.3,0.6,0.7,1.1,1.3,1.5c0.6,0.3,1.3,0.5,2,0.5s1.3-0.1,1.8-0.4
		c0.5-0.3,1-0.8,1.7-1.6l0.3,0.2c-0.5,0.9-1.1,1.5-1.8,1.9c-0.7,0.4-1.5,0.6-2.4,0.6c-1.7,0-3-0.6-3.9-1.8c-0.7-0.9-1-1.9-1-3.2
		c0-1,0.3-1.9,0.7-2.7c0.4-0.8,1.1-1.5,1.9-1.9c0.8-0.5,1.7-0.7,2.6-0.7c0.8,0,1.5,0.2,2.2,0.5c0.2,0.1,0.4,0.2,0.5,0.2
		s0.3,0,0.4-0.1c0.1-0.2,0.2-0.3,0.3-0.5C102.3,124.2,102.5,124.2,102.5,124.2z"/>
	<path class="st0" d="M106.7,125v3.9h2.2c0.6,0,1-0.1,1.2-0.2c0.3-0.2,0.4-0.6,0.4-1.2h0.3v3.4h-0.3c-0.1-0.5-0.2-0.8-0.2-0.9
		c-0.1-0.2-0.3-0.3-0.4-0.4c-0.2-0.1-0.5-0.1-1-0.1h-2.2v3.2c0,0.4,0,0.7,0.1,0.8c0,0.1,0.1,0.2,0.2,0.2c0.1,0.1,0.3,0.1,0.6,0.1
		h1.7c0.6,0,1,0,1.3-0.1s0.5-0.2,0.8-0.5s0.6-0.8,1-1.3h0.3l-0.9,2.5h-7.9V134h0.4c0.2,0,0.5-0.1,0.7-0.2c0.2-0.1,0.3-0.2,0.3-0.3
		c0.1-0.2,0.1-0.5,0.1-0.9v-6.4c0-0.6-0.1-1-0.2-1.2c-0.2-0.2-0.5-0.3-0.9-0.3h-0.4v-0.3h7.9l0.1,2.2h-0.3c-0.1-0.5-0.2-0.9-0.3-1.1
		c-0.1-0.2-0.3-0.3-0.6-0.5c-0.2-0.1-0.5-0.1-1.1-0.1L106.7,125L106.7,125z"/>
	<path class="st0" d="M121.8,131.5l0.3,0.1l-0.9,2.7h-7.9V134h0.4c0.4,0,0.7-0.2,0.9-0.4c0.1-0.2,0.2-0.5,0.2-1.1v-6.3
		c0-0.6-0.1-1-0.2-1.2c-0.2-0.2-0.5-0.3-0.9-0.3h-0.4v-0.3h4.6v0.3c-0.5,0-0.9,0-1.1,0.2c-0.2,0.1-0.3,0.2-0.4,0.4
		c-0.1,0.2-0.1,0.5-0.1,1.1v6.1c0,0.4,0.1,0.7,0.1,0.8c0.1,0.1,0.2,0.2,0.3,0.2c0.1,0,0.5,0.1,1.2,0.1h0.8c0.8,0,1.3-0.1,1.6-0.2
		c0.3-0.1,0.6-0.3,0.9-0.6C121.2,132.6,121.5,132.1,121.8,131.5"/>
	<path class="st0" d="M125.9,128.4l1.9-4.2h0.3l1.9,4.2h-1.5l-0.9-2l-0.9,2H125.9z M129.4,131h-4l-0.7,1.5c-0.2,0.4-0.3,0.6-0.3,0.9
		c0,0.1,0.1,0.3,0.2,0.4c0.2,0.1,0.5,0.2,1,0.2v0.3h-3.2V134c0.4-0.1,0.7-0.2,0.8-0.3c0.3-0.2,0.5-0.7,0.9-1.4l1.7-3.8h0.7l-0.9,2
		h3.5l-0.9-2h1.5l1.7,3.9c0.3,0.7,0.5,1.1,0.8,1.3s0.6,0.3,1,0.3v0.3h-4V134c0.4,0,0.7-0.1,0.8-0.2c0.2-0.1,0.2-0.2,0.2-0.4
		s-0.1-0.5-0.3-1L129.4,131z"/>
	<path class="st0" d="M138.3,134v0.3h-4.4V134h0.3c0.4,0,0.7-0.1,0.9-0.4c0.1-0.2,0.2-0.5,0.2-1.1v-6.3c0-0.5,0-0.8-0.1-1
		c-0.1-0.1-0.2-0.2-0.3-0.3c-0.2-0.1-0.4-0.2-0.7-0.2h-0.3v-0.3h4.4v0.3h-0.4c-0.4,0-0.7,0.1-0.9,0.4c-0.1,0.2-0.2,0.5-0.2,1.1v6.3
		c0,0.5,0,0.8,0.1,1c0.1,0.1,0.2,0.2,0.3,0.3c0.2,0.1,0.5,0.2,0.7,0.2H138.3z"/>
	<path class="st0" d="M138.4,124.4h2.8l6.3,7.3v-5.6c0-0.6-0.1-1-0.2-1.1c-0.2-0.2-0.5-0.3-0.9-0.3H146v-0.3h3.6v0.3h-0.4
		c-0.4,0-0.7,0.1-0.9,0.4c-0.1,0.2-0.2,0.5-0.2,1.1v8.3h-0.3l-6.7-7.9v6c0,0.6,0.1,1,0.2,1.1c0.2,0.2,0.5,0.3,0.9,0.3h0.3v0.3H139
		V134h0.3c0.4,0,0.8-0.1,1-0.4c0.1-0.2,0.2-0.5,0.2-1v-6.8c-0.3-0.3-0.5-0.6-0.7-0.7c-0.1-0.1-0.3-0.2-0.7-0.3
		c-0.1,0-0.3-0.1-0.7-0.1C138.4,124.7,138.4,124.4,138.4,124.4z"/>
</g>
<g>
	<polygon class="st0" points="36.8,163.5 38.2,154.3 38.4,154.3 42.3,161.9 46.2,154.3 46.4,154.3 47.8,163.5 46.8,163.5 
		45.8,156.9 42.4,163.5 42.2,163.5 38.7,156.9 37.8,163.5 	"/>
	<path class="st0" d="M54.3,154.3l4.5,9.3h-1l-1.5-3h-4.2l-1.5,3h-1.1l4.6-9.3C54,154.3,54.3,154.3,54.3,154.3z M54.2,156.2
		l-1.7,3.4h3.3L54.2,156.2z"/>
	<polygon class="st0" points="61,154.3 62,154.3 62,157.8 65.8,154.3 67.1,154.3 62.5,158.4 67.5,163.5 66.2,163.5 62,159.2 
		62,163.5 61,163.5 	"/>
	<polygon class="st0" points="69.6,154.3 75.2,154.3 75.2,155.2 70.6,155.2 70.6,158.1 75.1,158.1 75.1,159 70.6,159 70.6,162.6 
		75.1,162.6 75.1,163.5 69.6,163.5 	"/>
	<path class="st0" d="M80.9,161.8l0.8-0.5c0.6,1,1.2,1.5,2,1.5c0.3,0,0.6-0.1,0.9-0.2c0.3-0.1,0.5-0.3,0.7-0.6
		c0.1-0.2,0.2-0.5,0.2-0.8s-0.1-0.6-0.3-0.9c-0.3-0.4-0.9-0.9-1.7-1.5c-0.8-0.6-1.3-1-1.5-1.3c-0.3-0.4-0.5-0.9-0.5-1.4
		c0-0.4,0.1-0.8,0.3-1.1c0.2-0.3,0.5-0.6,0.9-0.8s0.8-0.3,1.2-0.3c0.5,0,0.9,0.1,1.3,0.3s0.8,0.6,1.3,1.2l-0.8,0.6
		c-0.4-0.5-0.7-0.8-0.9-0.9c-0.3-0.1-0.5-0.2-0.8-0.2c-0.4,0-0.7,0.1-1,0.3c-0.2,0.2-0.4,0.5-0.4,0.8c0,0.2,0,0.4,0.1,0.6
		c0.1,0.2,0.2,0.4,0.5,0.6c0.1,0.1,0.5,0.4,1.2,0.9c0.8,0.6,1.4,1.1,1.7,1.6c0.3,0.5,0.5,0.9,0.5,1.4c0,0.7-0.3,1.3-0.8,1.7
		c-0.5,0.5-1.2,0.7-1.9,0.7c-0.6,0-1.1-0.2-1.6-0.5C81.8,163,81.3,162.5,80.9,161.8"/>
	<path class="st0" d="M89.3,154.3h1v5.6c0,0.7,0,1.1,0,1.2c0,0.4,0.2,0.7,0.3,0.9c0.2,0.2,0.4,0.5,0.8,0.6c0.4,0.2,0.7,0.2,1.1,0.2
		c0.3,0,0.6-0.1,0.9-0.2c0.3-0.1,0.5-0.3,0.7-0.5s0.3-0.5,0.4-0.8c0.1-0.2,0.1-0.7,0.1-1.4v-5.6h1v5.6c0,0.8-0.1,1.5-0.3,2
		c-0.2,0.5-0.5,1-1,1.3c-0.5,0.4-1.1,0.6-1.8,0.6c-0.8,0-1.5-0.2-2-0.5c-0.6-0.4-0.9-0.8-1.1-1.4c-0.1-0.4-0.2-1-0.2-2L89.3,154.3
		L89.3,154.3z"/>
	<path class="st0" d="M98.9,154.3h1.9c1.1,0,1.8,0,2.2,0.1c0.6,0.1,1,0.4,1.4,0.8c0.4,0.4,0.5,0.9,0.5,1.5c0,0.5-0.1,0.9-0.4,1.3
		c-0.2,0.4-0.6,0.7-1.1,0.9s-1.1,0.3-1.9,0.3l3.5,4.3h-1.2l-3.5-4.3h-0.5v4.3h-1L98.9,154.3L98.9,154.3z M99.8,155.2v3.1h1.7
		c0.6,0,1.1-0.1,1.4-0.2c0.3-0.1,0.6-0.3,0.7-0.6c0.2-0.3,0.3-0.5,0.3-0.9c0-0.3-0.1-0.6-0.3-0.8c-0.2-0.3-0.4-0.4-0.7-0.5
		c-0.3-0.1-0.8-0.2-1.4-0.2L99.8,155.2L99.8,155.2z"/>
	<polygon class="st0" points="107.7,154.3 113.2,154.3 113.2,155.2 108.6,155.2 108.6,158.1 113.2,158.1 113.2,159 108.6,159 
		108.6,162.6 113.2,162.6 113.2,163.5 107.7,163.5 	"/>
	<rect x="119.8" y="154.3" class="st0" width="1" height="9.3"/>
	<rect x="29.4" y="152.4" class="st0" width="1" height="13"/>
	<rect x="179.2" y="152.4" class="st0" width="1" height="13"/>
	<polygon class="st0" points="122.7,155.2 122.7,154.3 128,154.3 128,155.2 125.9,155.2 125.9,163.5 124.9,163.5 124.9,155.2 	"/>
	<path class="st0" d="M131.2,157.5l-0.5-0.3c0.2-0.3,0.3-0.6,0.3-0.7c0.1-0.2,0.1-0.4,0.1-0.7h-0.6V154h1.2v1.1c0,0.5,0,1-0.1,1.3
		C131.6,156.7,131.4,157.1,131.2,157.5"/>
	<path class="st0" d="M134.5,161.8l0.8-0.5c0.6,1,1.2,1.5,2,1.5c0.3,0,0.6-0.1,0.9-0.2c0.3-0.1,0.5-0.3,0.7-0.6
		c0.1-0.2,0.2-0.5,0.2-0.8s-0.1-0.6-0.3-0.9c-0.3-0.4-0.9-0.9-1.7-1.5s-1.3-1-1.5-1.3c-0.3-0.4-0.5-0.9-0.5-1.4
		c0-0.4,0.1-0.8,0.3-1.1s0.5-0.6,0.9-0.8s0.8-0.3,1.2-0.3c0.5,0,0.9,0.1,1.3,0.3c0.4,0.2,0.8,0.6,1.3,1.2l-0.8,0.6
		c-0.4-0.5-0.7-0.8-0.9-0.9c-0.3-0.1-0.5-0.2-0.8-0.2c-0.4,0-0.7,0.1-1,0.3c-0.2,0.2-0.4,0.5-0.4,0.8c0,0.2,0,0.4,0.1,0.6
		c0.1,0.2,0.2,0.4,0.5,0.6c0.1,0.1,0.5,0.4,1.2,0.9c0.8,0.6,1.4,1.1,1.7,1.6s0.5,0.9,0.5,1.4c0,0.7-0.3,1.3-0.8,1.7
		c-0.5,0.5-1.2,0.7-1.9,0.7c-0.6,0-1.1-0.2-1.6-0.5C135.3,163,134.9,162.5,134.5,161.8"/>
	<path class="st0" d="M147.3,154.3h1.9c1.1,0,1.8,0,2.2,0.1c0.6,0.1,1,0.4,1.4,0.8c0.4,0.4,0.5,0.9,0.5,1.5c0,0.5-0.1,0.9-0.4,1.3
		c-0.2,0.4-0.6,0.7-1.1,0.9s-1.1,0.3-1.9,0.3l3.5,4.3h-1.2l-3.5-4.3h-0.5v4.3h-1L147.3,154.3L147.3,154.3z M148.3,155.2v3.1h1.7
		c0.6,0,1.1-0.1,1.4-0.2c0.3-0.1,0.6-0.3,0.7-0.6c0.2-0.3,0.3-0.5,0.3-0.9c0-0.3-0.1-0.6-0.3-0.8c-0.2-0.3-0.4-0.4-0.7-0.5
		s-0.8-0.2-1.4-0.2L148.3,155.2L148.3,155.2z"/>
	<path class="st0" d="M160.1,154.3l4.5,9.3h-1l-1.5-3h-4.2l-1.5,3h-1.1l4.6-9.3C159.9,154.3,160.1,154.3,160.1,154.3z M160,156.2
		l-1.7,3.4h3.3L160,156.2z"/>
	<polygon class="st0" points="166.8,154.3 167.8,154.3 167.8,157.8 171.6,154.3 172.9,154.3 168.3,158.4 173.3,163.5 172,163.5 
		167.8,159.2 167.8,163.5 166.8,163.5 	"/>
</g>
</svg>
